# xmcd
#
# Track frame offsets: 
#        150
#        17085
#        35907
#        64540
#
# Disc length: 1181 seconds
#
# Revision: 0
# Processed by: cddbd v1.5.2PL0 Copyright (c) Steve Scherf et al.
# Submitted via: ExactAudioCopy v0.95b4
#
DISCID=2e049b04
DTITLE=lang k d - watershed (Bonus)
DYEAR=2008
DGENRE=Blues
TTITLE0=i dream of spring (live)
TTITLE1=wash me clean (live)
TTITLE2=the valley (live)
TTITLE3=hallelujah (live)
EXTD=
EXTT0=
EXTT1=
EXTT2=
EXTT3=
PLAYORDER=
